<?xml version="1.0" encoding="utf-8"?>
<!-- Generator: Adobe Illustrator 19.2.1, SVG Export Plug-In . SVG Version: 6.00 Build 0)  -->
<svg version="1.0" id="Ebene_1" xmlns="http://www.w3.org/2000/svg" xmlns:xlink="http://www.w3.org/1999/xlink" x="0px" y="0px"
	 viewBox="0 0 16 16" style="enable-background:new 0 0 16 16;" xml:space="preserve">
<style type="text/css">
	.st0{enable-background:new    ;}
	.st1{fill:#6C9FBB;}
	.st2{fill:#C75052;}
	.st3{fill:#FFFFFF;}
</style>
<g class="st0">
	<path class="st1" d="M12.2,7.6c0.1-0.2,0.1-0.4,0.1-0.7c0-1-0.9-1.9-2-1.9C9.8,5,9.3,5.2,9,5.5C8.6,4.1,7.2,3.2,5.7,3.2
		C3.6,3.2,2,4.8,2,6.7C2,6.9,2,7,2,7.2c-1.2,0.5-2,1.6-2,2.9c0,1.7,1.4,3.1,3.2,3.1h8.4c1.6,0,2.9-1.3,2.9-2.8
		C14.5,9,13.5,7.8,12.2,7.6"/>
</g>
<g class="st0">
	<path class="st1" d="M15.5,3.8c-0.2,0-0.4-0.2-0.5-0.3l0,0c-0.4-0.9-1.3-1.7-2.1-2.2c-0.3-0.2-0.6-0.2-0.7-0.3
		c-0.4-0.3-0.5-1,0.2-1c0.9,0,2.4,1.3,2.6,1.6C15.2,2,16.7,3.7,15.5,3.8z"/>
	<path class="st1" d="M14.3,4.6c-0.2,0-0.4-0.1-0.5-0.3l0,0l-0.6-0.7c-0.4-0.3-0.9-0.8-1.3-1c-0.2-0.1-0.6-0.2-0.7-0.3
		c-0.4-0.3,0-0.8,0.4-0.7c0.9,0,1.9,0.9,2.3,1.4C14.2,3.2,15.5,4.6,14.3,4.6z"/>
	<path class="st1" d="M12.9,5.7c-0.2,0-0.4-0.1-0.5-0.3l0,0L12.1,5c-0.2-0.5-0.6-0.7-1.1-1c-0.2-0.1-0.5-0.2-0.6-0.3
		C10.2,3.3,10.5,2.9,11,3c0.6,0.1,1.4,0.8,1.8,1.2C13,4.5,13.9,5.6,12.9,5.7z"/>
</g>
<g>
	<circle class="st2" cx="12.9" cy="12.9" r="3.1"/>
	<g>
		<path class="st3" d="M14.4,14.7c-0.1,0-0.2-0.1-0.2-0.1l-2.9-2.9c-0.1-0.1-0.1-0.3,0-0.4s0.3-0.1,0.4,0l2.9,2.9
			c0.1,0.1,0.1,0.3,0,0.4C14.5,14.7,14.5,14.7,14.4,14.7z"/>
		<path class="st3" d="M11.5,14.7c0,0-0.1,0-0.2-0.1c-0.1-0.1-0.1-0.3,0-0.4l2.9-2.9c0.1-0.1,0.3-0.1,0.4,0s0.1,0.3,0,0.4l-2.9,2.9
			C11.6,14.7,11.6,14.7,11.5,14.7z"/>
	</g>
</g>
</svg>
