<?xml version="1.0" encoding="utf-8"?>
<!-- Generator: Adobe Illustrator 19.2.1, SVG Export Plug-In . SVG Version: 6.00 Build 0)  -->
<svg version="1.0" id="Ebene_1" xmlns="http://www.w3.org/2000/svg" xmlns:xlink="http://www.w3.org/1999/xlink" x="0px" y="0px"
	 viewBox="0 0 16 16" style="enable-background:new 0 0 16 16;" xml:space="preserve">
<style type="text/css">
	.st0{enable-background:new    ;}
	.st1{fill:#6C9FBB;}
</style>
<g class="st0">
	<path class="st1" d="M12.2,8.8c0.1-0.2,0.1-0.4,0.1-0.7c0-1-0.9-1.9-2-1.9c-0.5,0-1,0.2-1.3,0.5C8.6,5.3,7.2,4.4,5.7,4.4
		C3.6,4.4,2,6,2,7.9c0,0.2,0,0.3,0,0.5C0.8,8.9,0,10,0,11.3c0,1.7,1.4,3.1,3.2,3.1h8.4c1.6,0,2.9-1.3,2.9-2.8
		C14.5,10.2,13.5,9,12.2,8.8"/>
</g>
<g class="st0">
	<path class="st1" d="M15.5,5.2c-0.2,0-0.4-0.2-0.5-0.3l0,0c-0.4-0.9-1.3-1.7-2.1-2.2c-0.3-0.2-0.6-0.2-0.7-0.3
		c-0.5-0.3-0.6-0.9,0.1-0.9c0.9,0,2.4,1.3,2.6,1.6C15.2,3.4,16.7,5.1,15.5,5.2z"/>
	<path class="st1" d="M14.3,5.7c-0.2,0-0.4-0.1-0.5-0.3l0,0l-0.6-0.7c-0.4-0.3-0.9-0.8-1.3-1c-0.2-0.1-0.6-0.2-0.7-0.3
		c-0.4-0.3,0-0.8,0.4-0.7c0.9,0,1.9,0.9,2.3,1.4C14.2,4.3,15.5,5.7,14.3,5.7z"/>
	<path class="st1" d="M13,6.6c-0.2,0-0.4-0.1-0.5-0.3l0,0l-0.3-0.4c-0.3-0.4-0.7-0.6-1.1-0.9c-0.2-0.1-0.5-0.2-0.6-0.3
		c-0.3-0.4,0.1-0.7,0.5-0.7c0.6,0.1,1.4,0.8,1.8,1.2C13.1,5.4,14,6.5,13,6.6z"/>
</g>
</svg>
